<svg width="30pt" height="27pt" viewBox="0 0 30 27" xmlns="http://www.w3.org/2000/svg"><g id="fontsvg1715668882627" stroke-linecap="round" fill-rule="evenodd" fill="#64ffda"><path d="M 6.445 0.001 L 7.031 0.001 Q 9.667 0.001 10.611 3.316 A 12.045 12.045 0 0 1 10.937 4.884 Q 13.426 15.665 13.827 17.056 A 3.557 3.557 0 0 0 13.867 17.188 L 14.16 17.188 A 0.156 0.156 0 0 0 14.249 17.086 Q 14.558 16.477 15.409 12.238 A 252.582 252.582 0 0 0 15.723 10.645 A 272.05 272.05 0 0 1 16.326 7.868 Q 17.551 2.378 18.066 1.466 A 4.081 4.081 0 0 1 18.925 0.602 A 3.111 3.111 0 0 1 20.801 0.001 L 21.387 0.001 A 3.455 3.455 0 0 1 22.789 0.27 Q 23.666 0.656 24.186 1.592 A 4.971 4.971 0 0 1 24.609 2.637 A 6.127 6.127 0 0 1 24.742 3.189 Q 25.245 5.599 27.01 17.086 A 2489.82 2489.82 0 0 1 27.637 21.192 L 27.637 21.485 Q 27.319 24.219 25 24.219 Q 22.07 24.219 22.07 18.946 L 20.703 7.032 A 0.587 0.587 0 0 1 20.638 7.029 Q 20.508 7.014 20.508 6.934 A 0.275 0.275 0 0 0 20.299 7.093 Q 19.997 7.562 19.737 9.415 A 37.434 37.434 0 0 0 19.629 10.255 A 202.291 202.291 0 0 1 18.803 14.221 Q 16.65 24.024 15.332 24.024 L 14.063 24.219 A 4.263 4.263 0 0 1 12.912 24.076 Q 11.533 23.689 11.035 22.266 Q 10.78 21.691 8.443 10.599 A 2385.054 2385.054 0 0 1 7.715 7.13 L 7.422 6.934 A 0.242 0.242 0 0 0 7.229 7.085 Q 6.969 7.531 6.864 9.303 A 31.789 31.789 0 0 0 6.836 9.864 Q 5.566 20.313 5.176 22.266 A 4.813 4.813 0 0 1 4.703 23.121 Q 4.374 23.584 3.973 23.852 A 2.181 2.181 0 0 1 2.734 24.219 A 3.046 3.046 0 0 1 1.57 24.013 Q 0.179 23.441 0 21.29 A 1214.979 1214.979 0 0 1 0.699 17.099 Q 2.915 3.959 3.641 1.758 A 3.644 3.644 0 0 1 3.711 1.563 A 3.72 3.72 0 0 1 4.52 0.646 A 3 3 0 0 1 6.445 0.001 Z M 24.805 1.27 L 24.902 1.27 Q 26.025 1.759 26.758 4.395 A 7372.701 7372.701 0 0 1 27.422 8.574 Q 29.59 22.251 29.59 22.657 A 6.29 6.29 0 0 1 29.286 24.01 Q 28.615 25.891 26.745 26.058 A 4.228 4.228 0 0 1 26.367 26.075 L 25.781 26.075 A 2.233 2.233 0 0 1 24.331 25.531 Q 24.013 25.269 23.724 24.882 A 5.157 5.157 0 0 1 23.535 24.61 L 23.633 24.61 A 27.029 27.029 0 0 0 24.027 24.686 Q 24.55 24.783 24.8 24.801 A 1.417 1.417 0 0 0 24.902 24.805 A 3.99 3.99 0 0 0 26.187 24.612 Q 27.603 24.133 28.125 22.462 A 0.349 0.349 0 0 0 28.162 22.372 Q 28.241 22.105 28.32 21.192 A 2462.917 2462.917 0 0 0 27.672 17.039 Q 25.663 4.251 25.16 2.101 A 5.838 5.838 0 0 0 25.098 1.856 Q 24.923 1.834 24.827 1.384 A 2.977 2.977 0 0 1 24.805 1.27 Z M 20.215 10.059 L 20.313 10.059 Q 20.557 10.059 20.898 14.552 Q 19.015 23.888 17.612 25.394 A 0.748 0.748 0 0 1 17.09 25.684 Q 17.09 25.927 15.892 26.05 A 13.961 13.961 0 0 1 15.625 26.075 L 14.844 26.075 A 9.088 9.088 0 0 1 13.948 25.908 Q 13.062 25.693 12.627 25.335 A 1.036 1.036 0 0 1 12.207 24.512 Q 13.11 24.805 14.063 24.805 Q 16.289 24.805 17.105 22.955 A 4.201 4.201 0 0 0 17.187 22.755 A 38.467 38.467 0 0 0 18.019 20.102 Q 19.092 16.254 20.215 10.059 Z M 6.25 20.118 L 7.422 9.571 L 7.617 9.571 L 8.398 13.575 A 343.981 343.981 0 0 1 8.132 16.093 Q 7.23 24.317 6.738 24.317 Q 6.151 25.349 5.412 25.775 A 2.195 2.195 0 0 1 4.297 26.075 L 3.516 26.075 Q 2.471 26.075 1.53 25.113 A 5.544 5.544 0 0 1 1.172 24.708 L 1.172 24.512 A 8.259 8.259 0 0 0 1.723 24.667 Q 2.011 24.736 2.263 24.771 A 3.485 3.485 0 0 0 2.734 24.805 A 2.878 2.878 0 0 0 5.375 23.196 Q 5.716 22.592 5.942 21.761 A 11.524 11.524 0 0 0 6.25 20.118 Z M 14.16 15.137 L 13.965 15.137 A 622.592 622.592 0 0 0 13.101 11.303 Q 11.406 3.898 10.608 1.453 A 17.16 17.16 0 0 0 10.547 1.27 Q 11.865 1.978 12.598 4.786 Q 12.598 5.006 14.551 13.282 A 93.575 93.575 0 0 0 14.459 13.669 Q 14.16 14.945 14.16 15.137 Z" vector-effect="non-scaling-stroke"/></g></svg>