<svg width="53pt" height="47pt" viewBox="0 0 53 47" xmlns="http://www.w3.org/2000/svg"><g id="fontsvg1715661241954" stroke-linecap="round" fill-rule="evenodd" fill="#000000"><path d="M 17.407 2.527 L 18.982 4.749 L 24.365 16.138 L 25.952 18.042 L 33.228 2.844 L 36.389 0.317 L 40.186 0 A 44.462 44.462 0 0 1 41.595 0.68 Q 44.321 2.061 44.609 2.823 A 0.62 0.62 0 0 1 44.617 2.844 A 30.554 30.554 0 0 1 47.156 11.389 L 47.156 13.293 L 48.096 15.82 A 0.749 0.749 0 0 0 48.078 15.965 Q 47.993 18.015 52.844 38.928 A 11.394 11.394 0 0 1 51.806 41.907 A 7.454 7.454 0 0 1 46.204 45.886 Q 42.518 46.171 39.841 42.388 A 15.007 15.007 0 0 1 39.233 41.455 L 36.707 30.066 L 35.754 29.431 Q 31.958 41.138 27.527 41.455 A 17.555 17.555 0 0 1 25.086 41.299 Q 21.466 40.788 20.251 38.611 L 16.455 30.701 L 15.503 29.749 L 14.868 31.335 Q 13.681 42.092 13.049 42.689 A 0.108 0.108 0 0 1 12.976 42.725 A 7.079 7.079 0 0 1 9.336 45.825 A 8.889 8.889 0 0 1 9.18 45.886 Q 1.892 47.156 0 39.563 A 39.192 39.192 0 0 1 0.308 36.829 Q 1.191 30.485 4.461 13.593 A 2130.009 2130.009 0 0 1 6.006 5.701 A 11.126 11.126 0 0 1 7.007 3.686 Q 7.716 2.584 8.617 1.908 A 5.237 5.237 0 0 1 10.754 0.952 Q 17.407 0.952 17.407 2.527 Z M 7.91 5.066 L 1.892 37.341 L 1.892 39.246 L 2.527 39.246 Q 4.431 36.389 6.323 35.767 L 9.802 17.725 Q 11.228 15.169 13.67 16.437 A 6.1 6.1 0 0 1 14.233 16.772 L 14.868 18.042 L 14.868 23.108 Q 15.503 26.27 21.204 35.767 L 23.73 31.958 L 23.73 30.701 L 12.341 7.91 L 12.341 5.066 L 14.233 2.844 L 14.233 2.222 A 13.038 13.038 0 0 0 13.476 2.148 Q 10.214 1.931 8.728 3.644 A 4.497 4.497 0 0 0 7.91 5.066 Z M 33.545 5.066 L 26.27 21.521 L 26.27 26.587 L 27.209 27.527 L 28.479 26.904 L 33.862 15.186 Q 36.403 13.495 37.941 15.838 A 6.166 6.166 0 0 1 38.293 16.455 L 38.293 18.042 A 8.661 8.661 0 0 0 37.2 20.289 Q 36.865 21.367 36.865 22.487 A 7.915 7.915 0 0 0 37.024 24.048 L 40.503 38.928 A 0.089 0.089 0 0 0 40.569 38.953 Q 40.986 38.953 43.118 36.472 A 86.656 86.656 0 0 0 43.982 35.449 L 43.665 32.275 L 40.82 21.204 Q 40.186 14.88 37.976 7.275 L 38.293 4.431 L 40.186 2.222 L 40.186 1.587 Q 35.842 0.771 34.065 3.912 A 7.314 7.314 0 0 0 33.545 5.066 Z" vector-effect="non-scaling-stroke"/></g></svg>