<svg width="37pt" height="36pt" viewBox="0 0 37 36" xmlns="http://www.w3.org/2000/svg"><g id="fontsvg1715661232849" stroke-linecap="round" fill-rule="evenodd" fill="#000000"><path d="M 33.887 32.617 L 24.658 32.617 L 24.658 28.809 Q 24.512 28.906 26.953 28.711 Q 27.218 25.403 27.243 19.943 A 254.71 254.71 0 0 0 27.246 18.75 Q 27.148 10.156 27.197 8.496 A 18.173 18.173 0 0 0 26.419 9.549 Q 25.564 10.785 24.424 12.728 A 114.875 114.875 0 0 0 23.242 14.795 Q 21.198 18.42 19.824 20.4 A 22.164 22.164 0 0 1 19.141 21.338 Q 17.041 21.729 15.576 19.092 A 449.116 449.116 0 0 0 13.636 15.544 Q 10.698 10.236 9.277 8.105 L 9.277 28.564 Q 9.479 28.685 10.181 28.707 A 10.629 10.629 0 0 0 10.498 28.711 Q 11.306 28.671 11.646 28.764 A 0.67 0.67 0 0 1 11.768 28.809 L 11.768 32.471 A 28.201 28.201 0 0 1 10.858 32.535 Q 9.838 32.591 8.481 32.609 A 100.159 100.159 0 0 1 7.178 32.617 L 2.441 32.617 L 2.441 28.809 A 0.044 0.044 0 0 0 2.429 28.817 Q 2.356 28.895 4.508 28.725 A 138.161 138.161 0 0 0 4.688 28.711 A 68.785 68.785 0 0 0 4.845 26.279 Q 5.012 22.838 4.982 17.941 A 257.595 257.595 0 0 0 4.98 17.725 Q 4.932 8.35 4.932 6.445 Q 4.677 6.318 3.944 6.375 A 8.561 8.561 0 0 0 3.711 6.396 A 7.253 7.253 0 0 1 3.458 6.42 Q 2.922 6.461 2.602 6.393 A 1.114 1.114 0 0 1 2.441 6.348 L 2.441 2.393 L 10.498 2.393 A 72.332 72.332 0 0 1 11.685 4.275 Q 13.394 7.065 16.227 12.035 A 765.981 765.981 0 0 1 18.066 15.283 Q 18.711 14.454 25.139 3.712 A 2662.787 2662.787 0 0 0 25.928 2.393 L 33.984 2.393 L 33.984 6.299 L 31.641 6.445 L 31.641 28.564 A 0.81 0.81 0 0 0 31.833 28.641 Q 32.191 28.737 32.861 28.662 Q 33.659 28.568 33.96 28.79 A 0.495 0.495 0 0 1 33.984 28.809 Q 33.984 29.102 34.033 30.762 Q 34.033 31.82 33.923 32.437 A 3.633 3.633 0 0 1 33.887 32.617 Z M 30.762 5.566 L 33.105 5.566 L 33.105 3.32 L 26.465 3.32 Q 25.928 4.053 22.363 10.254 A 98.98 98.98 0 0 1 20.864 12.733 Q 19.284 15.255 17.979 16.93 A 28.356 28.356 0 0 1 17.969 16.943 A 205.607 205.607 0 0 0 15.024 11.5 Q 12.317 6.685 10.01 3.32 L 3.467 3.32 Q 3.278 3.556 3.272 4.295 A 6.043 6.043 0 0 0 3.271 4.346 A 178.618 178.618 0 0 1 3.288 4.701 Q 3.315 5.282 3.319 5.493 A 3.439 3.439 0 0 1 3.32 5.566 L 4.004 5.566 L 4.736 5.566 A 3.122 3.122 0 0 1 5.093 5.585 Q 5.457 5.627 5.66 5.764 A 0.585 0.585 0 0 1 5.811 5.908 A 69.939 69.939 0 0 0 5.789 6.765 Q 5.729 9.872 5.801 16.775 A 1085.197 1085.197 0 0 0 5.811 17.676 A 303.194 303.194 0 0 1 5.829 19.515 Q 5.872 25.769 5.615 29.443 L 3.32 29.443 L 3.32 31.689 L 10.889 31.689 L 10.889 29.443 A 15.608 15.608 0 0 1 10.372 29.491 Q 9.002 29.593 8.417 29.354 A 1.27 1.27 0 0 1 8.398 29.346 L 8.398 5.176 A 170.452 170.452 0 0 1 13.937 14.12 A 148.439 148.439 0 0 1 15.576 17.041 A 1.125 1.125 0 0 0 15.608 17.122 Q 15.707 17.352 16.064 18.066 A 16.572 16.572 0 0 0 16.304 18.59 Q 16.512 19.023 16.699 19.336 Q 17.496 20.619 18.292 20.619 A 1.001 1.001 0 0 0 18.457 20.605 A 0.751 0.751 0 0 0 18.749 20.469 Q 19.142 20.19 19.684 19.368 A 13.179 13.179 0 0 0 19.922 18.994 Q 20.215 18.506 20.557 17.822 A 57.186 57.186 0 0 1 20.649 17.661 Q 20.936 17.162 20.99 17.096 A 0.089 0.089 0 0 1 20.996 17.09 A 955.137 955.137 0 0 1 22.474 14.639 Q 27.095 7 27.989 5.911 A 1.942 1.942 0 0 1 28.076 5.811 A 92.016 92.016 0 0 0 28.048 7.007 Q 27.994 9.962 28.019 15.877 A 1184.353 1184.353 0 0 0 28.027 17.627 Q 28.125 25.244 27.832 29.443 L 25.586 29.443 L 25.586 31.689 L 33.105 31.689 L 33.105 29.443 A 11.087 11.087 0 0 1 32.681 29.491 Q 31.192 29.629 30.762 29.199 L 30.762 5.566 Z M 34.033 8.838 L 36.426 8.838 L 36.426 0 L 24.561 0 A 23.983 23.983 0 0 0 24.144 0.653 Q 23.472 1.737 22.241 3.87 A 376.881 376.881 0 0 0 21.436 5.273 A 128.112 128.112 0 0 1 20.52 6.845 Q 19.202 9.07 18.213 10.498 Q 17.572 9.376 15.944 6.578 A 2596.253 2596.253 0 0 0 15.186 5.273 A 673.844 673.844 0 0 1 14.282 3.717 Q 13.181 1.813 12.404 0.436 A 193.411 193.411 0 0 1 12.158 0 L 0.146 0 A 23.428 23.428 0 0 0 0.082 0.83 Q 0 2.185 0 4.199 A 1963.695 1963.695 0 0 1 0.017 5.455 Q 0.046 7.761 0.049 8.482 A 34.715 34.715 0 0 1 0.049 8.594 Q 0.247 8.673 0.929 8.688 A 15.671 15.671 0 0 0 1.27 8.691 A 5.286 5.286 0 0 1 1.624 8.722 Q 2.155 8.788 2.359 8.954 A 0.444 0.444 0 0 1 2.393 8.984 A 1537.352 1537.352 0 0 1 2.441 12.638 Q 2.56 22.458 2.454 25.905 A 48.106 48.106 0 0 1 2.441 26.27 Q 2.107 26.353 0.593 26.866 A 220.747 220.747 0 0 0 0.049 27.051 L 0.049 35.01 L 14.16 35.01 L 14.16 27.441 A 8.974 8.974 0 0 0 13.241 26.882 Q 12.762 26.627 12.199 26.387 A 17.095 17.095 0 0 0 11.67 26.172 L 11.67 17.09 Q 14.551 21.826 14.844 22.168 A 5.689 5.689 0 0 0 16.231 23.265 Q 17.791 24.125 19.726 23.697 A 7.62 7.62 0 0 0 20.752 23.389 A 9.488 9.488 0 0 0 21.155 22.864 Q 21.598 22.249 22.189 21.286 A 58.412 58.412 0 0 0 22.803 20.264 A 49.609 49.609 0 0 1 23.404 19.285 Q 24.246 17.953 24.757 17.386 A 4.047 4.047 0 0 1 24.805 17.334 Q 24.758 24.864 24.666 26.167 A 5.075 5.075 0 0 1 24.658 26.27 Q 24.324 26.353 22.81 26.866 A 220.747 220.747 0 0 0 22.266 27.051 L 22.266 35.01 L 36.426 35.01 L 36.426 27.441 A 2.9 2.9 0 0 1 36.325 27.388 Q 36.047 27.234 35.254 26.758 A 10.856 10.856 0 0 0 34.762 26.492 Q 34.516 26.368 34.293 26.274 A 5.539 5.539 0 0 0 34.033 26.172 L 34.033 8.838 Z" vector-effect="non-scaling-stroke"/></g></svg>